# xmcd CD database file
#
# Track frame offsets:
#	150
#	17101
#	37064
#	55797
#	80121
#	101275
#	118072
#	140562
#	164382
#	181690
#	200501
#	223061
#	245492
#	265240
#
# Disc length: 3767 seconds
#
# Revision: 0
# Processed by: cddbd v1.5.2PL0 Copyright (c) Steve Scherf et al.
# Submitted via: CDex 1.70beta2
#
DISCID=c90eb50e
DTITLE=European Jazz Trio - BEST OF CLASSICS II
DYEAR=1900
DGENRE=Jazz
TTITLE0=Les Songes - Milhaud
TTITLE1=Largo - J.S.Bach
TTITLE2=Pearlfisher - bizet
TTITLE3=Apres Un Reve - Faure
TTITLE4=Fantasie Impromptu In C# Minor - Chopin
TTITLE5=Lullaby - Brahms
TTITLE6=Waltz in A♭/ Chopin
TTITLE7=Serenade - Schubert
TTITLE8=Ombra Mai Fu - Handel
TTITLE9=24 Prelude Op.28-20 - Chopin
TTITLE10=Prelude No.7 In A Major (OP.28-7)/ Chopin
TTITLE11=Chanson de L'adieu - Chopin
TTITLE12=Sheep May Safely Graze - J.S.Bach
TTITLE13=Pavane Op.50 - Faure
EXTD=
EXTT0=
EXTT1=
EXTT2=
EXTT3=
EXTT4=
EXTT5=
EXTT6=
EXTT7=
EXTT8=
EXTT9=
EXTT10=
EXTT11=
EXTT12=
EXTT13=
PLAYORDER=
